<svg xmlns="http://www.w3.org/2000/svg" viewBox="0 0 800 800"><g id="add-icon"><path d="M400,795.5A100.21,100.21,0,0,1,299.9,695.4V502.61H107.1a100.11,100.11,0,0,1,0-200.21H299.9V109.61a100.1,100.1,0,1,1,200.2,0V302.4H692.9a100.11,100.11,0,0,1,0,200.21H500.1V695.4A100.21,100.21,0,0,1,400,795.5ZM107.1,371.4a31.11,31.11,0,0,0,0,62.21H334.4a34.5,34.5,0,0,1,34.5,34.5V695.4a31.1,31.1,0,1,0,62.2,0V468.11a34.5,34.5,0,0,1,34.5-34.5H692.9a31.11,31.11,0,0,0,0-62.21H465.6a34.5,34.5,0,0,1-34.5-34.5V109.61a31.1,31.1,0,1,0-62.2,0V336.9a34.5,34.5,0,0,1-34.5,34.5Z"/></g></svg>