<svg xmlns="http://www.w3.org/2000/svg" viewBox="0 0 800 800"><g id="back-icon"><path d="
M303.57,674.24a100.29,100.29,0,0,1-71.14-29.43L11.88,424.4a34.48,34.48,0,0,1,0-48.8L232.44,155.18A100.61,100.61,0,0,1,374.72,297.47l-.2.2-1.77,1.74H696.38a101.48,101.48,0,0,1,71.89,29.34A99.54,99.54,0,0,1,798,400,100.72,100.72,0,0,1,697.38,500.63H372.82l1.9,1.9a100.57,100.57,0,0,1-71.15,171.71ZM85.07,400,281.21,596a31.61,31.61,0,1,0,44.72-44.7l-60.79-60.79a34.5,34.5,0,0,1,24.39-58.9H697.38A31.65,31.65,0,0,0,729,400c0-17.73-14.32-31.61-32.61-31.61H288.49a34.5,34.5,0,0,1-24.19-59.1L326,248.6A31.61,31.61,0,0,0,281.22,204Z"/></g></svg>