<svg id="storage-overview-icon" xmlns="http://www.w3.org/2000/svg" viewBox="0 0 800 800"><path d="M699.64,576.6a2.14,2.14,0,0,0,.13-.19c.4-.55.78-1.11,1.15-1.68l.34-.54c.38-.62.75-1.24,1.09-1.88l.13-.26c.3-.58.59-1.17.85-1.76l.26-.57c.28-.67.56-1.35.8-2l.06-.19c.23-.65.43-1.3.62-2l.15-.55c.19-.71.37-1.43.52-2.16v-.06c.14-.71.25-1.42.34-2.14,0-.19,0-.38.07-.57.08-.7.15-1.39.19-2.09,0-.05,0-.1,0-.15,0-.58,0-1.16,0-1.73V36.5A34.5,34.5,0,0,0,671.9,2H128.1A34.5,34.5,0,0,0,93.6,36.5v727A34.5,34.5,0,0,0,128.1,798H464.48c.57,0,1.14,0,1.71,0l.26,0c.48,0,.95-.06,1.42-.11l.71-.08,1-.12.85-.15.81-.14.84-.19c.27-.06.54-.11.8-.18l.78-.21c.28-.08.57-.15.85-.24l.7-.22.9-.3.6-.23,1-.38.5-.22,1.05-.46.41-.21,1.1-.55.35-.2c.38-.21.75-.41,1.12-.63l.32-.2c.38-.23.75-.46,1.11-.71.12-.07.23-.16.34-.23.36-.24.71-.48,1.05-.74l.41-.32c.31-.24.63-.47.93-.72s.39-.34.58-.5l.72-.62c.42-.38.84-.78,1.25-1.18L696.3,580.48c.54-.54,1.06-1.11,1.56-1.69.13-.14.26-.29.38-.44C698.73,577.78,699.2,577.2,699.64,576.6ZM162.6,71H637.4V521.59H464.49a34.5,34.5,0,0,0-34.5,34.5V729H162.6ZM499,680.21V590.59h89.62Z"/><path d="M226.23,204.77H573.77a25.5,25.5,0,0,0,0-51H226.23a25.5,25.5,0,0,0,0,51Z"/><path d="M226.23,298.56H573.77a25.5,25.5,0,0,0,0-51H226.23a25.5,25.5,0,1,0,0,51Z"/><path d="M226.23,392.35H573.77a25.5,25.5,0,0,0,0-51H226.23a25.5,25.5,0,0,0,0,51Z"/><path d="M226.23,486.15H573.77a25.5,25.5,0,0,0,0-51H226.23a25.5,25.5,0,0,0,0,51Z"/><path d="M400,528.94H226.23a25.5,25.5,0,0,0,0,51H400a25.5,25.5,0,0,0,0-51Z"/><path d="M390,622.73H226.23a25.5,25.5,0,0,0,0,51H390a25.5,25.5,0,0,0,0-51Z"/></svg>