<svg xmlns="http://www.w3.org/2000/svg" viewBox="0 0 800 800"><g id="package-icon"><path d="M789.22,179c0-.6,0-1.21-.05-1.81l0-.47c0-.52-.08-1-.14-1.55l0-.27c-.07-.61-.16-1.21-.27-1.81,0-.1,0-.2-.05-.3-.1-.53-.21-1.05-.33-1.57l-.06-.29c-.15-.61-.31-1.21-.49-1.8a.24.24,0,0,0,0-.08c-.17-.56-.35-1.11-.55-1.66,0-.1-.07-.2-.11-.31-.42-1.13-.9-2.24-1.43-3.33l-.18-.36c-.24-.47-.49-.94-.75-1.4a1.28,1.28,0,0,1-.11-.2c-.3-.5-.6-1-.92-1.49l-.26-.39c-.26-.39-.52-.77-.8-1.15l-.24-.34c-.34-.46-.7-.91-1.06-1.35l-.29-.34c-.3-.36-.62-.72-.94-1.07l-.29-.32c-.4-.42-.82-.85-1.25-1.25l-.21-.2c-.38-.37-.78-.72-1.19-1.07l-.26-.22q-.72-.62-1.47-1.17h0l0,0c-.48-.36-1-.71-1.48-1.05l-.24-.16a35.33,35.33,0,0,0-3.21-1.87l-.33-.17c-.51-.25-1-.49-1.53-.71l-.14-.07c-.54-.23-1.1-.46-1.66-.66l-.44-.16-1.29-.44-.48-.15-.24-.07L409.63,42.78a34.51,34.51,0,0,0-19.27,0L35.65,145.9A34.5,34.5,0,0,0,10.78,179c0,.16,0,.32,0,.48V621A34.5,34.5,0,0,0,35.66,654.1L390.37,757.22l.83.21,1,.26c.53.12,1.06.23,1.59.32.33.06.65.13,1,.18.59.09,1.18.15,1.77.21.28,0,.55.07.83.09.87.06,1.74.1,2.6.1h0c.86,0,1.73,0,2.6-.1.28,0,.56-.06.83-.09.59-.06,1.18-.12,1.77-.21.33-.05.65-.12,1-.18.53-.09,1.06-.2,1.59-.32l1-.26.83-.21L764.35,654.1A34.5,34.5,0,0,0,789.22,621V179.05ZM400,111.84,631.14,179,598,188.69,400,246.23,168.86,179ZM79.79,225l285.72,83.06V678.13l-285.72-83ZM434.51,678.13V308.06l270.17-78.54L720.22,225V595.08Z"/></g></svg>