<svg xmlns="http://www.w3.org/2000/svg" viewBox="0 0 800 800"><g id="save-icon"><path d="M772.17,206.85,599.37,15.2A34.51,34.51,0,0,0,573.75,3.8H95.24a34.5,34.5,0,0,0-34.5,34.5v725a34.49,34.49,0,0,0,34.5,34.5H746.55a34.5,34.5,0,0,0,34.5-34.5V230A34.53,34.53,0,0,0,772.17,206.85ZM471.81,72.8V149H252.52V72.8ZM247.66,728.23V509H596.41V728.23Zm464.39.57H665.41V474.45a34.5,34.5,0,0,0-34.5-34.5H213.16a34.5,34.5,0,0,0-34.5,34.5V728.8H129.74V72.8h53.78V183.5A34.5,34.5,0,0,0,218,218H506.31a34.5,34.5,0,0,0,34.5-34.5V72.8H558.4L712.05,243.21Z"/><path d="M541.76,552.67H302.31a25.5,25.5,0,0,0,0,51H541.76a25.5,25.5,0,0,0,0-51Z"/><path d="M541.76,632.6H302.31a25.5,25.5,0,0,0,0,51H541.76a25.5,25.5,0,0,0,0-51Z"/></g></svg>